<?xml version="1.0" encoding="UTF-8" standalone="no"?>
<!DOCTYPE svg PUBLIC "-//W3C//DTD SVG 1.1//EN"
 "http://www.w3.org/Graphics/SVG/1.1/DTD/svg11.dtd">
<!-- Generated by graphviz version 2.38.0 (20140413.2041)
 -->
<!-- Title: G Pages: 1 -->
<svg width="1400pt" height="124pt"
 viewBox="0.00 0.00 1400.11 123.98" xmlns="http://www.w3.org/2000/svg" xmlns:xlink="http://www.w3.org/1999/xlink">
<g id="graph0" class="graph" transform="scale(1 1) rotate(0) translate(7.992 115.992)">
<title>G</title>
<polygon fill="#000000" stroke="none" points="-7.992,7.992 -7.992,-115.992 1392.11,-115.992 1392.11,7.992 -7.992,7.992"/>
<!-- index -->
<g id="node1" class="node"><title>index</title>
<ellipse fill="none" stroke="#c6c5fe" cx="684.286" cy="-90" rx="32.4942" ry="18"/>
<text text-anchor="middle" x="684.286" y="-86.3" font-family="Arial" font-size="14.00" fill="#c6c5fe">index</text>
</g>
<!-- ../node_modules/fun&#45;array/src/index -->
<g id="node2" class="node"><title>../node_modules/fun&#45;array/src/index</title>
<ellipse fill="none" stroke="#cfffac" cx="157.286" cy="-18" rx="157.072" ry="18"/>
<text text-anchor="middle" x="157.286" y="-14.3" font-family="Arial" font-size="14.00" fill="#cfffac">../node_modules/fun&#45;array/src/index</text>
</g>
<!-- index&#45;&gt;../node_modules/fun&#45;array/src/index -->
<g id="edge1" class="edge"><title>index&#45;&gt;../node_modules/fun&#45;array/src/index</title>
<path fill="none" stroke="#757575" d="M652.898,-84.8308C578.325,-74.9255 387.658,-49.5997 265.735,-33.4049"/>
<polygon fill="#757575" stroke="#757575" points="265.993,-29.9086 255.619,-32.0613 265.071,-36.8476 265.993,-29.9086"/>
</g>
<!-- ../node_modules/fun&#45;function/src/index -->
<g id="node3" class="node"><title>../node_modules/fun&#45;function/src/index</title>
<ellipse fill="none" stroke="#cfffac" cx="502.286" cy="-18" rx="169.77" ry="18"/>
<text text-anchor="middle" x="502.286" y="-14.3" font-family="Arial" font-size="14.00" fill="#cfffac">../node_modules/fun&#45;function/src/index</text>
</g>
<!-- index&#45;&gt;../node_modules/fun&#45;function/src/index -->
<g id="edge2" class="edge"><title>index&#45;&gt;../node_modules/fun&#45;function/src/index</title>
<path fill="none" stroke="#757575" d="M658.21,-78.9707C631.372,-68.6485 588.814,-52.2799 554.935,-39.2497"/>
<polygon fill="#757575" stroke="#757575" points="555.77,-35.8208 545.18,-35.4976 553.257,-42.3542 555.77,-35.8208"/>
</g>
<!-- ../node_modules/fun&#45;predicate/src/index -->
<g id="node4" class="node"><title>../node_modules/fun&#45;predicate/src/index</title>
<ellipse fill="none" stroke="#cfffac" cx="866.286" cy="-18" rx="176.269" ry="18"/>
<text text-anchor="middle" x="866.286" y="-14.3" font-family="Arial" font-size="14.00" fill="#cfffac">../node_modules/fun&#45;predicate/src/index</text>
</g>
<!-- index&#45;&gt;../node_modules/fun&#45;predicate/src/index -->
<g id="edge3" class="edge"><title>index&#45;&gt;../node_modules/fun&#45;predicate/src/index</title>
<path fill="none" stroke="#757575" d="M710.362,-78.9707C737.2,-68.6485 779.758,-52.2799 813.637,-39.2497"/>
<polygon fill="#757575" stroke="#757575" points="815.315,-42.3542 823.392,-35.4976 812.802,-35.8208 815.315,-42.3542"/>
</g>
<!-- ../node_modules/fun&#45;scalar/src/index -->
<g id="node5" class="node"><title>../node_modules/fun&#45;scalar/src/index</title>
<ellipse fill="none" stroke="#cfffac" cx="1222.29" cy="-18" rx="161.671" ry="18"/>
<text text-anchor="middle" x="1222.29" y="-14.3" font-family="Arial" font-size="14.00" fill="#cfffac">../node_modules/fun&#45;scalar/src/index</text>
</g>
<!-- index&#45;&gt;../node_modules/fun&#45;scalar/src/index -->
<g id="edge4" class="edge"><title>index&#45;&gt;../node_modules/fun&#45;scalar/src/index</title>
<path fill="none" stroke="#757575" d="M715.537,-84.9339C791.085,-75.1042 986.597,-49.6658 1111.5,-33.4141"/>
<polygon fill="#757575" stroke="#757575" points="1112.03,-36.8756 1121.49,-32.1145 1111.12,-29.9341 1112.03,-36.8756"/>
</g>
</g>
</svg>
